<?xml version="1.0" encoding="utf-8"?>
<!-- Generator: Adobe Illustrator 26.2.1, SVG Export Plug-In . SVG Version: 6.00 Build 0)  -->
<svg version="1.1" id="레이어_1" xmlns="http://www.w3.org/2000/svg" xmlns:xlink="http://www.w3.org/1999/xlink" x="0px"
	 y="0px" viewBox="0 0 349 266" style="enable-background:new 0 0 349 266;" xml:space="preserve">
<style type="text/css">
	.st0{fill:none;stroke:#FF3131;stroke-width:4;stroke-miterlimit:10;}
	.st1{fill:none;stroke:#87888C;}
	.st2{fill:#FFFFFF;}
	<!-- #meter-bg-bar {
		animation: dash 4s linear forwards infinite;
		stroke-dasharray: 615;
	}
	@keyframes dash {
		0%,
		100% {
			stroke-dashoffset: 615;
		}
		25% {
			stroke-dashoffset: 0;
		}
		50% {
			stroke-dashoffset: 307.5;
		}
		75% {
			stroke-dashoffset: 0;
		}
	} -->
</style>
<path id="meter-bg-bar" class="st0" d="M50.9,250C37,227.8,29,201.6,29,173.5C29,93.7,93.7,29,173.5,29C253.3,29,318,93.7,318,173.5
	c0,28.1-8,54.3-21.9,76.5"/>
<path id="inner-circle" class="st1" d="M174.1,238.9c34.8,0,63-28.2,63-63s-28.2-63-63-63c-34.8,0-63,28.2-63,63
	S139.3,238.9,174.1,238.9z"/>
<path id="meter-frame" class="st2" d="M1,173.7c0,32.3,8.9,62.6,24.4,88.5c0.5,0.8,1.6,1,2.3,0.4c0.6-0.5,0.7-1.3,0.3-1.9
	c-15.2-25.4-24-55.1-24-86.9C4,80.1,79.9,4.2,173.5,4.2C267.1,4.2,343,80.1,343,173.7c0,31.8-8.7,61.5-24,86.9
	c-0.4,0.6-0.3,1.4,0.3,1.9c0.7,0.6,1.8,0.4,2.3-0.4c15.5-25.9,24.4-56.1,24.4-88.5C346,78.4,268.8,1.2,173.5,1.2S1,78.4,1,173.7z
	 M191.7,15.2c0.1-0.5-0.3-1-0.9-1.1c-0.5-0.1-1,0.3-1.1,0.9l-1.2,11c-0.1,0.5,0.3,1,0.9,1.1s1-0.3,1.1-0.9L191.7,15.2z M13.8,157.4
	c0.1-0.5,0.6-0.9,1.1-0.9l11,1.2c0.5,0.1,0.9,0.6,0.9,1.1s-0.6,0.9-1.1,0.9l-11-1.2C14.1,158.4,13.7,157.9,13.8,157.4z M321.2,188.7
	c-0.5-0.1-1,0.3-1.1,0.9c-0.1,0.5,0.3,1,0.9,1.1l11,1.2c0.5,0.1,1-0.3,1.1-0.9s-0.3-1-0.9-1.1L321.2,188.7z M207.3,16.8
	c0.5,0.1,0.9,0.6,0.8,1.2l-2.2,10.7c-0.1,0.5-0.6,0.9-1.2,0.8c-0.5-0.1-0.9-0.6-0.8-1.2l2.2-10.7C206.2,17,206.8,16.7,207.3,16.8z
	 M17.6,140c-0.5-0.1-1.1,0.2-1.2,0.8c-0.1,0.5,0.2,1.1,0.8,1.2l10.7,2.3c0.5,0.1,1.1-0.2,1.2-0.8c0.1-0.5-0.2-1.1-0.8-1.2L17.6,140z
	 M317.7,204.9c0.1-0.5,0.6-0.9,1.2-0.8l10.7,2.2c0.5,0.1,0.9,0.6,0.8,1.2c-0.1,0.5-0.6,0.9-1.2,0.8l-10.7-2.2
	C318,205.9,317.6,205.4,317.7,204.9z M224.2,22.5c0.2-0.5-0.1-1.1-0.6-1.3s-1.1,0.1-1.3,0.6l-3.4,10.4c-0.2,0.5,0.1,1.1,0.6,1.3
	c0.5,0.2,1.1-0.1,1.3-0.6L224.2,22.5z M20.6,124.6c0.2-0.5,0.7-0.8,1.3-0.6l10.5,3.4c0.5,0.2,0.8,0.7,0.6,1.3
	c-0.2,0.5-0.7,0.8-1.3,0.6l-10.5-3.4C20.8,125.7,20.5,125.1,20.6,124.6z M314.9,219.1c-0.5-0.2-1.1,0.1-1.3,0.6
	c-0.2,0.5,0.1,1.1,0.6,1.3l10.4,3.4c0.5,0.2,1.1-0.1,1.3-0.6c0.2-0.5-0.1-1.1-0.6-1.3L314.9,219.1z M239.2,27.3
	c0.5,0.2,0.7,0.8,0.5,1.3l-4.4,10c-0.2,0.5-0.8,0.7-1.3,0.5c-0.5-0.2-0.7-0.8-0.5-1.3l4.4-10C238.1,27.3,238.7,27,239.2,27.3z
	 M28,108.4c-0.5-0.2-1.1,0-1.3,0.5c-0.2,0.5,0,1.1,0.5,1.3l10,4.4c0.5,0.2,1.1,0,1.3-0.5c0.2-0.5,0-1.1-0.5-1.3L28,108.4z
	 M308.1,234.2c0.2-0.5,0.8-0.7,1.3-0.5l10,4.4c0.5,0.2,0.7,0.8,0.5,1.3c-0.2,0.5-0.8,0.7-1.3,0.5l-10-4.4
	C308.1,235.3,307.9,234.7,308.1,234.2z M268.5,45.6c0.3-0.4,0.2-1.1-0.2-1.4c-0.4-0.3-1.1-0.2-1.4,0.2l-6.5,8.9
	c-0.3,0.4-0.2,1.1,0.2,1.4c0.4,0.3,1.1,0.2,1.4-0.2L268.5,45.6z M43.4,79.8c0.3-0.4,0.9-0.6,1.4-0.2l8.9,6.4
	c0.4,0.3,0.6,0.9,0.2,1.4c-0.3,0.4-0.9,0.6-1.4,0.2l-8.9-6.4C43.2,80.9,43.1,80.2,43.4,79.8z M281.3,56.1c0.4-0.4,0.3-1-0.1-1.4
	c-0.4-0.4-1-0.3-1.4,0.1l-7.4,8.2c-0.4,0.4-0.3,1,0.1,1.4c0.4,0.4,1,0.3,1.4-0.1L281.3,56.1z M53.9,66.7c0.4-0.4,1-0.4,1.4-0.1
	l8.2,7.3c0.4,0.4,0.4,1,0.1,1.4c-0.4,0.4-1,0.4-1.4,0.1l-8.2-7.3C53.5,67.7,53.5,67.1,53.9,66.7z M293.1,68.1c0.4-0.4,0.4-1,0.1-1.4
	c-0.4-0.4-1-0.4-1.4-0.1l-8.2,7.3c-0.4,0.4-0.4,1-0.1,1.4s1,0.4,1.4,0.1L293.1,68.1z M65.7,54.7c0.4-0.4,1-0.3,1.4,0.1l7.4,8.2
	c0.4,0.4,0.3,1-0.1,1.4c-0.4,0.4-1,0.3-1.4-0.1l-7.4-8.2C65.3,55.7,65.3,55.1,65.7,54.7z M303.4,81.2c0.4-0.3,0.5-0.9,0.2-1.4
	c-0.3-0.4-0.9-0.6-1.4-0.2l-8.9,6.4c-0.4,0.3-0.6,0.9-0.2,1.4c0.3,0.4,0.9,0.6,1.4,0.2L303.4,81.2z M78.7,44.2
	c0.4-0.3,1.1-0.2,1.4,0.2l6.5,8.9c0.3,0.4,0.2,1.1-0.2,1.4c-0.4,0.3-1.1,0.2-1.4-0.2l-6.5-8.9C78.2,45.1,78.3,44.5,78.7,44.2z
	 M38.4,235.5c0.5-0.2,0.7-0.8,0.5-1.3c-0.2-0.5-0.8-0.7-1.3-0.5l-10,4.4c-0.5,0.2-0.7,0.8-0.5,1.3c0.2,0.5,0.8,0.7,1.3,0.5
	L38.4,235.5z M320.3,108.9c0.2,0.5,0,1.1-0.5,1.3l-10,4.4c-0.5,0.2-1.1,0-1.3-0.5c-0.2-0.5,0-1.1,0.5-1.3l10-4.4
	C319.5,108.1,320.1,108.4,320.3,108.9z M109.1,27.8c-0.2-0.5-0.8-0.7-1.3-0.5c-0.5,0.2-0.7,0.8-0.5,1.3l4.4,10
	c0.2,0.5,0.8,0.7,1.3,0.5c0.5-0.2,0.7-0.8,0.5-1.3L109.1,27.8z M33.4,219.8c0.2,0.5-0.1,1.1-0.6,1.3l-10.4,3.4
	c-0.5,0.2-1.1-0.1-1.3-0.6c-0.2-0.5,0.1-1.1,0.6-1.3l10.4-3.4C32.6,218.9,33.2,219.2,33.4,219.8z M325.7,125.8
	c0.5-0.2,0.8-0.7,0.6-1.3c-0.2-0.5-0.7-0.8-1.3-0.6l-10.5,3.4c-0.5,0.2-0.8,0.7-0.6,1.3c0.2,0.5,0.7,0.8,1.3,0.6L325.7,125.8z
	 M123.4,21.2c0.5-0.2,1.1,0.1,1.3,0.6l3.4,10.4c0.2,0.5-0.1,1.1-0.6,1.3c-0.5,0.2-1.1-0.1-1.3-0.6l-3.4-10.4
	C122.6,22,122.9,21.4,123.4,21.2z M28.5,206c0.5-0.1,0.9-0.6,0.8-1.2c-0.1-0.5-0.6-0.9-1.2-0.8l-10.7,2.2c-0.5,0.1-0.9,0.6-0.8,1.2
	s0.6,0.9,1.2,0.8L28.5,206z M330.6,140.8c0.1,0.5-0.2,1.1-0.8,1.2l-10.7,2.3c-0.5,0.1-1.1-0.2-1.2-0.8c-0.1-0.5,0.2-1.1,0.8-1.2
	l10.7-2.3C329.9,139.9,330.5,140.2,330.6,140.8z M140.9,17.6c-0.1-0.5-0.6-0.9-1.2-0.8c-0.5,0.1-0.9,0.6-0.8,1.2l2.2,10.7
	c0.1,0.5,0.6,0.9,1.2,0.8c0.5-0.1,0.9-0.6,0.8-1.2L140.9,17.6z M26.9,189.6c0.1,0.5-0.3,1-0.9,1.1l-11,1.2c-0.5,0.1-1-0.3-1.1-0.9
	s0.3-1,0.9-1.1l11-1.2C26.3,188.6,26.8,189,26.9,189.6z M332.3,158.5c0.5-0.1,0.9-0.6,0.9-1.1s-0.6-0.9-1.1-0.9l-11,1.2
	c-0.5,0.1-0.9,0.6-0.9,1.1s0.6,0.9,1.1,0.9L332.3,158.5z M156.2,14.1c0.5-0.1,1,0.3,1.1,0.9l1.2,11c0.1,0.5-0.3,1-0.9,1.1
	s-1-0.3-1.1-0.9l-1.2-11C155.2,14.6,155.6,14.1,156.2,14.1z M175,14.2c0-0.6-0.4-1-1-1s-1,0.4-1,1v34c0,0.6,0.4,1,1,1s1-0.4,1-1
	V14.2z M13,174.2c0-0.6,0.4-1,1-1h34c0.6,0,1,0.4,1,1s-0.4,1-1,1H14C13.4,175.2,13,174.7,13,174.2z M299,173.2c-0.6,0-1,0.4-1,1
	s0.4,1,1,1h34c0.6,0,1-0.4,1-1s-0.4-1-1-1H299z M254.2,34.9c0.5,0.3,0.6,0.9,0.4,1.4l-17,29.5c-0.3,0.5-0.9,0.6-1.4,0.4
	c-0.5-0.3-0.6-0.9-0.4-1.4l17-29.5C253.1,34.8,253.7,34.6,254.2,34.9z M64.5,236c0.5-0.3,1.1-0.1,1.4,0.4c0.3,0.5,0.1,1.1-0.4,1.4
	l-29.4,17c-0.5,0.3-1.1,0.1-1.4-0.4c-0.3-0.5-0.1-1.1,0.4-1.4L64.5,236z M312.8,93.9c0.3,0.5,0.1,1.1-0.4,1.4l-29.4,17
	c-0.5,0.3-1.1,0.1-1.4-0.4c-0.3-0.5-0.1-1.1,0.4-1.4l29.4-17C311.9,93.2,312.5,93.4,312.8,93.9z M94.2,35.3
	c-0.3-0.5-0.9-0.6-1.4-0.4c-0.5,0.3-0.6,0.9-0.4,1.4l17,29.5c0.3,0.5,0.9,0.6,1.4,0.4c0.5-0.3,0.6-0.9,0.4-1.4L94.2,35.3z
	 M34.2,93.9c0.3-0.5,0.9-0.6,1.4-0.4l29.5,17c0.5,0.3,0.6,0.9,0.4,1.4c-0.3,0.5-0.9,0.6-1.4,0.4l-29.5-17C34.1,95,34,94.3,34.2,93.9
	z M282.5,236c-0.5-0.3-1.1-0.1-1.4,0.4c-0.3,0.5-0.1,1.1,0.4,1.4l29.4,17c0.5,0.3,1.1,0.1,1.4-0.4c0.3-0.5,0.1-1.1-0.4-1.4
	L282.5,236z"/>
<g>
	<path class="st2" d="M59.6,253v-7.7h1.8v7.8c0,0.4,0.2,0.5,0.3,0.5c0.1,0,0.1,0,0.2,0l0.2,1.3c-0.2,0.1-0.5,0.2-0.9,0.2
		C60.1,255,59.6,254.2,59.6,253z"/>
	<path class="st2" d="M63,251.5c0-2.2,1.5-3.5,3.2-3.5s3.2,1.3,3.2,3.5c0,2.2-1.5,3.5-3.2,3.5S63,253.7,63,251.5z M67.7,251.5
		c0-1.3-0.5-2.1-1.4-2.1s-1.4,0.8-1.4,2.1c0,1.3,0.5,2.1,1.4,2.1S67.7,252.8,67.7,251.5z"/>
	<path class="st2" d="M70.4,253c0-1.4,1.2-2.2,3.9-2.5c0-0.7-0.3-1.2-1.2-1.2c-0.6,0-1.2,0.3-1.8,0.6l-0.6-1.2
		c0.8-0.5,1.8-0.9,2.8-0.9c1.7,0,2.6,1,2.6,3v3.9h-1.4l-0.1-0.7h0c-0.6,0.5-1.3,0.9-2,0.9C71.2,255,70.4,254.2,70.4,253z M74.3,253
		v-1.4c-1.6,0.2-2.2,0.7-2.2,1.3c0,0.5,0.4,0.8,0.9,0.8C73.5,253.7,73.9,253.4,74.3,253z"/>
	<path class="st2" d="M77.5,251.5c0-2.2,1.4-3.5,2.8-3.5c0.8,0,1.2,0.3,1.7,0.7l-0.1-1.1v-2.4h1.8v9.6h-1.4l-0.1-0.7h0
		c-0.5,0.5-1.2,0.9-1.9,0.9C78.6,255,77.5,253.7,77.5,251.5z M81.9,252.9v-3c-0.4-0.4-0.8-0.5-1.3-0.5c-0.8,0-1.4,0.7-1.4,2.1
		c0,1.4,0.5,2.1,1.4,2.1C81.1,253.6,81.5,253.4,81.9,252.9z"/>
	<path class="st2" d="M85.4,246.1c0-0.6,0.4-1,1-1c0.6,0,1,0.4,1,1c0,0.6-0.4,1-1,1C85.9,247.1,85.4,246.7,85.4,246.1z M85.6,248.2
		h1.8v6.7h-1.8V248.2z"/>
	<path class="st2" d="M89.2,248.2h1.4l0.1,0.9h0c0.6-0.6,1.3-1.1,2.2-1.1c1.5,0,2.1,1,2.1,2.7v4.2h-1.8v-4c0-1-0.3-1.4-0.9-1.4
		c-0.6,0-0.9,0.3-1.4,0.8v4.6h-1.8V248.2z"/>
	<path class="st2" d="M96.5,256.1c0-0.6,0.3-1,1-1.4v-0.1c-0.3-0.2-0.6-0.6-0.6-1.1c0-0.5,0.3-1,0.8-1.3v0c-0.5-0.3-0.9-1-0.9-1.8
		c0-1.6,1.3-2.4,2.7-2.4c0.4,0,0.7,0.1,1,0.2h2.4v1.3h-1.1c0.2,0.2,0.3,0.6,0.3,1c0,1.5-1.2,2.3-2.6,2.3c-0.3,0-0.6-0.1-0.9-0.2
		c-0.2,0.2-0.3,0.3-0.3,0.6c0,0.4,0.3,0.6,1.1,0.6h1.1c1.6,0,2.5,0.5,2.5,1.7c0,1.4-1.4,2.4-3.7,2.4
		C97.7,257.8,96.5,257.2,96.5,256.1z M101.3,255.7c0-0.5-0.4-0.6-1.1-0.6h-0.8c-0.4,0-0.7,0-0.9-0.1c-0.3,0.2-0.4,0.5-0.4,0.8
		c0,0.6,0.6,0.9,1.6,0.9C100.6,256.7,101.3,256.2,101.3,255.7z M100.5,250.4c0-0.8-0.5-1.2-1.1-1.2s-1.1,0.4-1.1,1.2
		c0,0.8,0.5,1.2,1.1,1.2C100,251.7,100.5,251.2,100.5,250.4z"/>
</g>
<g>
	<path class="st2" d="M34.9,179.9c0-0.6,0.4-1,1-1c0.6,0,1,0.4,1,1c0,0.6-0.4,1-1,1C35.3,180.9,34.9,180.5,34.9,179.9z M35,182h1.8
		v6.7H35V182z"/>
	<path class="st2" d="M38.7,182h1.4l0.1,0.9h0c0.6-0.6,1.3-1.1,2.2-1.1c1.5,0,2.1,1,2.1,2.7v4.2h-1.8v-4c0-1-0.3-1.4-0.9-1.4
		c-0.6,0-0.9,0.3-1.4,0.8v4.6h-1.8V182z"/>
	<path class="st2" d="M46.6,186.3v-3h-0.9V182l1-0.1l0.2-1.8h1.5v1.8h1.7v1.4h-1.7v3c0,0.8,0.3,1.1,0.9,1.1c0.2,0,0.5-0.1,0.7-0.1
		l0.3,1.3c-0.4,0.1-0.8,0.3-1.4,0.3C47.3,188.8,46.6,187.8,46.6,186.3z"/>
	<path class="st2" d="M51.4,182h1.4l0.1,1.2h0c0.5-0.9,1.2-1.4,1.9-1.4c0.4,0,0.6,0.1,0.8,0.1l-0.3,1.5c-0.2-0.1-0.4-0.1-0.7-0.1
		c-0.5,0-1.2,0.3-1.5,1.3v4h-1.8V182z"/>
	<path class="st2" d="M56.1,185.3c0-2.2,1.5-3.5,3.2-3.5s3.2,1.3,3.2,3.5c0,2.2-1.5,3.5-3.2,3.5S56.1,187.5,56.1,185.3z M60.7,185.3
		c0-1.3-0.5-2.1-1.4-2.1s-1.4,0.8-1.4,2.1c0,1.3,0.5,2.1,1.4,2.1S60.7,186.6,60.7,185.3z"/>
</g>
<g>
	<path class="st2" d="M45.7,123.2L45.7,123.2l-0.2,0.7h-1.4v-9.6h1.8v2.4l0,1.1c0.5-0.5,1.2-0.8,1.9-0.8c1.7,0,2.7,1.4,2.7,3.4
		c0,2.3-1.4,3.6-2.9,3.6C46.9,124,46.3,123.7,45.7,123.2z M48.6,120.4c0-1.3-0.4-2-1.3-2c-0.5,0-0.9,0.2-1.3,0.7v3
		c0.4,0.4,0.9,0.5,1.2,0.5C47.9,122.6,48.6,121.9,48.6,120.4z"/>
	<path class="st2" d="M51.4,122c0-1.4,1.2-2.2,3.9-2.5c0-0.7-0.3-1.2-1.2-1.2c-0.6,0-1.2,0.3-1.8,0.6l-0.6-1.2
		c0.8-0.5,1.8-0.9,2.8-0.9c1.7,0,2.6,1,2.6,3v3.9h-1.4l-0.1-0.7h0c-0.6,0.5-1.3,0.9-2,0.9C52.2,124,51.4,123.2,51.4,122z M55.2,122
		v-1.4c-1.6,0.2-2.2,0.7-2.2,1.3c0,0.5,0.4,0.8,0.9,0.8C54.4,122.7,54.8,122.4,55.2,122z"/>
	<path class="st2" d="M58.8,121.5v-3h-0.9v-1.3l1-0.1l0.2-1.8h1.5v1.8h1.7v1.4h-1.7v3c0,0.8,0.3,1.1,0.9,1.1c0.2,0,0.5-0.1,0.7-0.1
		l0.3,1.3c-0.4,0.1-0.8,0.3-1.4,0.3C59.4,124,58.8,123,58.8,121.5z"/>
	<path class="st2" d="M63.6,121.5v-3h-0.9v-1.3l1-0.1l0.2-1.8h1.5v1.8H67v1.4h-1.7v3c0,0.8,0.3,1.1,0.9,1.1c0.2,0,0.5-0.1,0.7-0.1
		l0.3,1.3c-0.4,0.1-0.8,0.3-1.4,0.3C64.2,124,63.6,123,63.6,121.5z"/>
	<path class="st2" d="M67.7,120.5c0-2.2,1.5-3.5,3.1-3.5c1.8,0,2.8,1.4,2.8,3.2c0,0.3,0,0.7-0.1,0.8h-4.1c0.1,1.1,0.9,1.7,1.9,1.7
		c0.6,0,1-0.2,1.5-0.5l0.6,1.1c-0.7,0.5-1.5,0.7-2.3,0.7C69.2,124,67.7,122.7,67.7,120.5z M72.2,119.8c0-0.9-0.4-1.5-1.3-1.5
		c-0.7,0-1.3,0.5-1.5,1.5H72.2z"/>
	<path class="st2" d="M75.1,117.2h1.4l0.1,1.2h0c0.5-0.9,1.2-1.4,1.9-1.4c0.4,0,0.6,0.1,0.8,0.1l-0.3,1.5c-0.2-0.1-0.4-0.1-0.7-0.1
		c-0.5,0-1.2,0.3-1.5,1.3v4h-1.8V117.2z"/>
	<path class="st2" d="M80.2,126.4l0.3-1.4c0.1,0,0.3,0.1,0.5,0.1c0.7,0,1.1-0.4,1.3-1l0.1-0.4l-2.6-6.6h1.8l1.1,3.1
		c0.2,0.6,0.4,1.2,0.6,1.9h0.1c0.2-0.6,0.3-1.3,0.5-1.9l0.9-3.1h1.7l-2.4,6.9c-0.6,1.6-1.3,2.5-2.8,2.5
		C80.7,126.6,80.4,126.5,80.2,126.4z"/>
</g>
<g>
	<path class="st2" d="M85.1,75L85.1,75l-0.2,0.7h-1.4v-9.6h1.8v2.4l0,1.1c0.5-0.5,1.2-0.8,1.9-0.8c1.7,0,2.7,1.4,2.7,3.4
		c0,2.3-1.4,3.6-2.9,3.6C86.3,75.8,85.6,75.5,85.1,75z M87.9,72.2c0-1.3-0.4-2-1.3-2c-0.5,0-0.9,0.2-1.3,0.7v3
		c0.4,0.4,0.9,0.5,1.2,0.5C87.3,74.4,87.9,73.7,87.9,72.2z"/>
	<path class="st2" d="M91.2,69h1.4l0.1,0.9h0c0.6-0.6,1.2-1.1,2.1-1.1c1,0,1.5,0.4,1.8,1.2c0.6-0.6,1.3-1.2,2.1-1.2
		c1.4,0,2.1,1,2.1,2.7v4.2h-1.8v-4c0-1-0.3-1.4-0.9-1.4c-0.4,0-0.8,0.3-1.3,0.8v4.6h-1.8v-4c0-1-0.3-1.4-0.9-1.4
		c-0.4,0-0.8,0.3-1.3,0.8v4.6h-1.8V69z"/>
	<path class="st2" d="M102.2,74.9l0.8-1.1c0.6,0.5,1.2,0.7,1.8,0.7c0.7,0,1-0.3,1-0.7c0-0.5-0.7-0.7-1.4-1c-0.9-0.3-1.8-0.8-1.8-2
		c0-1.2,1-2.1,2.5-2.1c1,0,1.7,0.4,2.3,0.8l-0.8,1.1c-0.5-0.3-0.9-0.6-1.4-0.6c-0.6,0-0.9,0.3-0.9,0.6c0,0.5,0.6,0.7,1.3,0.9
		c0.9,0.3,1.9,0.8,1.9,2c0,1.2-0.9,2.1-2.7,2.1C103.8,75.8,102.8,75.4,102.2,74.9z"/>
</g>
<g>
	<path class="st2" d="M145.7,42.5h1.4l0.1,0.9h0c0.6-0.6,1.2-1.1,2.1-1.1c1,0,1.5,0.4,1.8,1.2c0.6-0.6,1.3-1.2,2.1-1.2
		c1.4,0,2.1,1,2.1,2.7v4.2h-1.8v-4c0-1-0.3-1.4-0.9-1.4c-0.4,0-0.8,0.3-1.3,0.8v4.6h-1.8v-4c0-1-0.3-1.4-0.9-1.4
		c-0.4,0-0.8,0.3-1.3,0.8v4.6h-1.8V42.5z"/>
	<path class="st2" d="M156.8,45.8c0-2.2,1.6-3.5,3.4-3.5c0.8,0,1.5,0.3,2,0.7l-0.8,1.1c-0.3-0.3-0.6-0.4-1-0.4c-1,0-1.7,0.8-1.7,2.1
		c0,1.3,0.7,2.1,1.7,2.1c0.5,0,0.9-0.2,1.3-0.5l0.7,1.2c-0.6,0.6-1.5,0.8-2.2,0.8C158.3,49.3,156.8,48,156.8,45.8z"/>
	<path class="st2" d="M163.5,46.7v-4.2h1.8v4c0,1,0.3,1.4,0.9,1.4c0.6,0,0.9-0.2,1.4-0.8v-4.5h1.8v6.7h-1.4l-0.1-1h0
		c-0.6,0.7-1.2,1.1-2.1,1.1C164.1,49.3,163.5,48.3,163.5,46.7z"/>
</g>
<g>
	<path class="st2" d="M201.8,52.9h1.4l0.1,0.9h0c0.6-0.6,1.2-1.1,2.1-1.1c1,0,1.5,0.4,1.8,1.2c0.6-0.6,1.3-1.2,2.1-1.2
		c1.4,0,2.1,1,2.1,2.7v4.2h-1.8v-4c0-1-0.3-1.4-0.9-1.4c-0.4,0-0.8,0.3-1.3,0.8v4.6h-1.8v-4c0-1-0.3-1.4-0.9-1.4
		c-0.4,0-0.8,0.3-1.3,0.8v4.6h-1.8V52.9z"/>
	<path class="st2" d="M212.9,56.2c0-2.2,1.5-3.5,3.2-3.5c1.7,0,3.2,1.3,3.2,3.5c0,2.2-1.5,3.5-3.2,3.5
		C214.5,59.7,212.9,58.4,212.9,56.2z M217.6,56.2c0-1.3-0.5-2.1-1.4-2.1c-0.9,0-1.4,0.8-1.4,2.1c0,1.3,0.5,2.1,1.4,2.1
		C217.1,58.3,217.6,57.5,217.6,56.2z"/>
	<path class="st2" d="M220.8,57.2v-3h-0.9v-1.3l1-0.1l0.2-1.8h1.5v1.8h1.7v1.4h-1.7v3c0,0.8,0.3,1.1,0.9,1.1c0.2,0,0.5-0.1,0.7-0.1
		l0.3,1.3c-0.4,0.1-0.8,0.3-1.4,0.3C221.4,59.7,220.8,58.7,220.8,57.2z"/>
	<path class="st2" d="M224.9,56.2c0-2.2,1.5-3.5,3.2-3.5c1.7,0,3.2,1.3,3.2,3.5c0,2.2-1.5,3.5-3.2,3.5
		C226.5,59.7,224.9,58.4,224.9,56.2z M229.6,56.2c0-1.3-0.5-2.1-1.4-2.1c-0.9,0-1.4,0.8-1.4,2.1c0,1.3,0.5,2.1,1.4,2.1
		C229.1,58.3,229.6,57.5,229.6,56.2z"/>
	<path class="st2" d="M232.9,52.9h1.4l0.1,1.2h0c0.5-0.9,1.2-1.4,1.9-1.4c0.4,0,0.6,0.1,0.8,0.1l-0.3,1.5c-0.2-0.1-0.4-0.1-0.7-0.1
		c-0.5,0-1.2,0.3-1.5,1.3v4h-1.8V52.9z"/>
</g>
<g>
	<path class="st2" d="M269.8,95.8h3.1c1.9,0,3.3,0.7,3.3,2.7c0,1.3-0.7,2.2-1.7,2.6l2.1,3.6h-2l-1.8-3.4h-1.2v3.4h-1.8V95.8z
		 M272.7,99.9c1.1,0,1.8-0.5,1.8-1.4c0-1-0.6-1.3-1.8-1.3h-1.2v2.7H272.7z"/>
	<path class="st2" d="M280.7,95.8h2.9c1.8,0,3.2,0.5,3.2,2.2c0,0.8-0.5,1.7-1.2,1.9v0.1c1,0.2,1.7,0.9,1.7,2.1
		c0,1.8-1.5,2.6-3.4,2.6h-3.2V95.8z M283.5,99.4c1.1,0,1.6-0.5,1.6-1.2c0-0.8-0.5-1.1-1.6-1.1h-1.1v2.3H283.5z M283.7,103.3
		c1.2,0,1.9-0.4,1.9-1.4c0-0.9-0.6-1.2-1.9-1.2h-1.2v2.6H283.7z"/>
</g>
<g>
	<path class="st2" d="M246.1,166v-4.2h1.8v4c0,1,0.3,1.4,0.9,1.4c0.6,0,0.9-0.2,1.4-0.8v-4.5h1.8v6.7h-1.4l-0.1-1h0
		c-0.6,0.7-1.2,1.1-2.1,1.1C246.7,168.6,246.1,167.6,246.1,166z"/>
	<path class="st2" d="M253.2,167.7l0.8-1.1c0.6,0.5,1.2,0.7,1.8,0.7c0.7,0,1-0.3,1-0.7c0-0.5-0.7-0.7-1.4-1c-0.9-0.3-1.8-0.8-1.8-2
		c0-1.2,1-2.1,2.5-2.1c1,0,1.7,0.4,2.3,0.8l-0.8,1.1c-0.5-0.3-0.9-0.6-1.4-0.6c-0.6,0-0.9,0.3-0.9,0.6c0,0.5,0.6,0.7,1.3,0.9
		c0.9,0.3,1.9,0.8,1.9,2c0,1.2-0.9,2.1-2.7,2.1C254.8,168.6,253.8,168.2,253.2,167.7z"/>
	<path class="st2" d="M259.3,165.1c0-2.2,1.5-3.5,3.1-3.5c1.8,0,2.8,1.4,2.8,3.2c0,0.3,0,0.7-0.1,0.8H261c0.1,1.1,0.9,1.7,1.9,1.7
		c0.6,0,1-0.2,1.5-0.5l0.6,1.1c-0.7,0.5-1.5,0.7-2.3,0.7C260.8,168.6,259.3,167.3,259.3,165.1z M263.7,164.4c0-0.9-0.4-1.5-1.3-1.5
		c-0.7,0-1.3,0.5-1.5,1.5H263.7z"/>
	<path class="st2" d="M266.7,161.8h1.4l0.1,1.2h0c0.5-0.9,1.2-1.4,1.9-1.4c0.4,0,0.6,0.1,0.8,0.1l-0.3,1.5c-0.2-0.1-0.4-0.1-0.7-0.1
		c-0.5,0-1.2,0.3-1.5,1.3v4h-1.8V161.8z"/>
	<path class="st2" d="M274.7,161.8h1.4l0.1,1.2h0c0.5-0.9,1.2-1.4,1.9-1.4c0.4,0,0.6,0.1,0.8,0.1l-0.3,1.5c-0.2-0.1-0.4-0.1-0.7-0.1
		c-0.5,0-1.2,0.3-1.5,1.3v4h-1.8V161.8z"/>
	<path class="st2" d="M279.3,165.1c0-2.2,1.5-3.5,3.1-3.5c1.8,0,2.8,1.4,2.8,3.2c0,0.3,0,0.7-0.1,0.8H281c0.1,1.1,0.9,1.7,1.9,1.7
		c0.6,0,1-0.2,1.5-0.5l0.6,1.1c-0.7,0.5-1.5,0.7-2.3,0.7C280.8,168.6,279.3,167.3,279.3,165.1z M283.8,164.4c0-0.9-0.4-1.5-1.3-1.5
		c-0.7,0-1.3,0.5-1.5,1.5H283.8z"/>
	<path class="st2" d="M285.9,161.8h1.8l1,3.3c0.2,0.7,0.4,1.4,0.5,2h0.1c0.2-0.7,0.4-1.4,0.5-2l1-3.3h1.7l-2.2,6.7h-2L285.9,161.8z"
		/>
	<path class="st2" d="M293.4,159.7c0-0.6,0.4-1,1-1c0.6,0,1,0.4,1,1c0,0.6-0.4,1-1,1C293.9,160.7,293.4,160.3,293.4,159.7z
		 M293.6,161.8h1.8v6.7h-1.8V161.8z"/>
	<path class="st2" d="M296.8,165.1c0-2.2,1.5-3.5,3.1-3.5c1.8,0,2.8,1.4,2.8,3.2c0,0.3,0,0.7-0.1,0.8h-4.1c0.1,1.1,0.9,1.7,1.9,1.7
		c0.6,0,1-0.2,1.5-0.5l0.6,1.1c-0.7,0.5-1.5,0.7-2.3,0.7C298.3,168.6,296.8,167.3,296.8,165.1z M301.2,164.4c0-0.9-0.4-1.5-1.3-1.5
		c-0.7,0-1.3,0.5-1.5,1.5H301.2z"/>
	<path class="st2" d="M303.5,161.8h1.8l0.7,3.3c0.1,0.7,0.2,1.3,0.3,2h0c0.1-0.7,0.3-1.3,0.4-2l0.8-3.3h1.6l0.8,3.3
		c0.2,0.7,0.3,1.3,0.4,2h0.1c0.1-0.7,0.2-1.3,0.3-2l0.7-3.3h1.6l-1.7,6.7h-2.1l-0.7-2.9c-0.1-0.6-0.3-1.2-0.4-2h-0.1
		c-0.1,0.7-0.2,1.3-0.4,2l-0.7,2.9h-2L303.5,161.8z"/>
</g>
<g>
	<path class="st2" d="M269.3,225.7c0-2.2,1.4-3.5,2.8-3.5c0.8,0,1.2,0.3,1.7,0.7l-0.1-1.1v-2.4h1.8v9.6H274l-0.1-0.7h0
		c-0.5,0.5-1.2,0.9-1.9,0.9C270.3,229.2,269.3,227.9,269.3,225.7z M273.7,227.1v-3c-0.4-0.4-0.8-0.5-1.3-0.5c-0.8,0-1.4,0.7-1.4,2.1
		c0,1.4,0.5,2.1,1.4,2.1C272.9,227.8,273.3,227.6,273.7,227.1z"/>
	<path class="st2" d="M277,225.7c0-2.2,1.5-3.5,3.1-3.5c1.8,0,2.8,1.4,2.8,3.2c0,0.3,0,0.7-0.1,0.8h-4.1c0.1,1.1,0.9,1.7,1.9,1.7
		c0.6,0,1-0.2,1.5-0.5l0.6,1.1c-0.7,0.5-1.5,0.7-2.3,0.7C278.4,229.2,277,227.9,277,225.7z M281.4,225c0-0.9-0.4-1.5-1.3-1.5
		c-0.7,0-1.3,0.5-1.5,1.5H281.4z"/>
	<path class="st2" d="M284.5,226.7v-3h-0.9v-1.3l1-0.1l0.2-1.8h1.5v1.8h1.7v1.4h-1.7v3c0,0.8,0.3,1.1,0.9,1.1c0.2,0,0.5-0.1,0.7-0.1
		l0.3,1.3c-0.4,0.1-0.8,0.3-1.4,0.3C285.1,229.2,284.5,228.2,284.5,226.7z"/>
	<path class="st2" d="M288.6,227.2c0-1.4,1.2-2.2,3.9-2.5c0-0.7-0.3-1.2-1.2-1.2c-0.6,0-1.2,0.3-1.8,0.6l-0.6-1.2
		c0.8-0.5,1.8-0.9,2.8-0.9c1.7,0,2.6,1,2.6,3v3.9h-1.4l-0.1-0.7h0c-0.6,0.5-1.3,0.9-2,0.9C289.4,229.2,288.6,228.4,288.6,227.2z
		 M292.5,227.2v-1.4c-1.6,0.2-2.2,0.7-2.2,1.3c0,0.5,0.4,0.8,0.9,0.8C291.7,227.8,292.1,227.6,292.5,227.2z"/>
	<path class="st2" d="M295.9,220.3c0-0.6,0.4-1,1-1c0.6,0,1,0.4,1,1c0,0.6-0.4,1-1,1C296.3,221.2,295.9,220.9,295.9,220.3z
		 M296.1,222.3h1.8v6.7h-1.8V222.3z"/>
	<path class="st2" d="M299.7,227.2v-7.7h1.8v7.8c0,0.4,0.2,0.5,0.3,0.5c0.1,0,0.1,0,0.2,0l0.2,1.3c-0.2,0.1-0.5,0.2-0.9,0.2
		C300.1,229.2,299.7,228.4,299.7,227.2z"/>
</g>
</svg>
