<?xml version="1.0" encoding="UTF-8"?>
<svg id="Layer_1" data-name="Layer 1" xmlns="http://www.w3.org/2000/svg" viewBox="0 0 385.94 106.03">
  <defs>
    <style>
      .cls-1 {
        fill: none;
        stroke: #fff;
        stroke-miterlimit: 10;
        stroke-width: 4px;
      }
    </style>
  </defs>
  <path class="cls-1" d="m34.35,9.05c10.05,0,17.21,1.49,21.49,4.47,4.28,2.98,6.42,7.26,6.42,12.84,0,3.05-.55,5.63-1.65,7.73-1.1,2.11-2.48,3.78-4.13,5.01-1.65,1.23-3.36,2.08-5.11,2.53v.49c1.88.45,3.76,1.23,5.64,2.33,1.88,1.1,3.45,2.74,4.72,4.91,1.26,2.17,1.9,5.11,1.9,8.8,0,6.29-2.37,11.25-7.1,14.88-4.73,3.63-11.18,5.45-19.35,5.45H10.13V9.05h24.22Zm.19,26.65c3.11,0,5.3-.65,6.56-1.94,1.26-1.3,1.9-2.85,1.9-4.67,0-3.89-2.95-5.84-8.85-5.84h-5.25v12.45h5.64Zm-5.64,13.71v14.59h6.61c3.24,0,5.51-.7,6.81-2.09,1.3-1.39,1.95-3.16,1.95-5.3,0-1.88-.65-3.55-1.95-5.01-1.3-1.46-3.7-2.19-7.2-2.19h-6.22Z"/>
  <path class="cls-1" d="m100.87,23.74c6.81,0,12.12,1.69,15.95,5.06,3.82,3.37,5.74,8.17,5.74,14.39v35.3h-12.84l-3.6-7.1h-.39c-1.49,1.88-3.03,3.42-4.62,4.62-1.59,1.2-3.42,2.08-5.5,2.63-2.08.55-4.6.83-7.59.83-4.67,0-8.56-1.43-11.67-4.28-3.11-2.85-4.67-7.23-4.67-13.13s1.99-10.05,5.98-12.84c3.99-2.79,9.77-4.34,17.36-4.67l8.95-.29v-.78c0-2.4-.58-4.1-1.75-5.11-1.17-1-2.76-1.51-4.77-1.51-2.14,0-4.51.37-7.1,1.12-2.59.75-5.22,1.7-7.88,2.87l-5.35-12.25c3.11-1.62,6.63-2.84,10.55-3.65,3.92-.81,8.32-1.22,13.18-1.22Zm-1.07,30.93c-3.37.13-5.75.73-7.15,1.8-1.4,1.07-2.09,2.58-2.09,4.52,0,1.82.49,3.16,1.46,4.04.97.88,2.27,1.31,3.89,1.31,2.27,0,4.2-.71,5.79-2.14,1.59-1.43,2.38-3.27,2.38-5.54v-4.18l-4.28.19Z"/>
  <path class="cls-1" d="m161.56,64.78c1.69,0,3.22-.18,4.62-.54,1.39-.36,2.84-.79,4.33-1.31v13.52c-2.01.84-4.15,1.56-6.42,2.14-2.27.58-5.15.88-8.66.88s-6.56-.55-9.19-1.65c-2.63-1.1-4.68-3-6.18-5.69-1.49-2.69-2.24-6.47-2.24-11.33v-22.17h-6.52v-7.59l8.27-5.84,4.77-11.28h12.16v10.8h13.23v13.91h-13.23v20.91c0,3.5,1.68,5.25,5.06,5.25Z"/>
  <path class="cls-1" d="m206.29,64.78c1.69,0,3.22-.18,4.62-.54,1.39-.36,2.84-.79,4.33-1.31v13.52c-2.01.84-4.15,1.56-6.42,2.14-2.27.58-5.15.88-8.66.88s-6.56-.55-9.19-1.65c-2.63-1.1-4.69-3-6.18-5.69-1.49-2.69-2.24-6.47-2.24-11.33v-22.17h-6.52v-7.59l8.27-5.84,4.77-11.28h12.16v10.8h13.23v13.91h-13.23v20.91c0,3.5,1.69,5.25,5.06,5.25Z"/>
  <path class="cls-1" d="m248.89,23.74c7.84,0,14.04,2.04,18.58,6.13,4.54,4.08,6.81,10.25,6.81,18.48v8.27h-33.16c.13,2.79,1.18,5.09,3.16,6.9,1.98,1.82,4.85,2.72,8.61,2.72,3.37,0,6.45-.32,9.24-.97,2.79-.65,5.67-1.69,8.66-3.11v13.32c-2.59,1.36-5.43,2.37-8.51,3.02-3.08.65-6.95.97-11.62.97-5.45,0-10.29-.96-14.54-2.87-4.25-1.91-7.6-4.91-10.07-9-2.46-4.08-3.7-9.3-3.7-15.66s1.12-11.8,3.36-15.95c2.24-4.15,5.35-7.23,9.34-9.24,3.99-2.01,8.61-3.02,13.86-3.02Zm.68,12.64c-2.21,0-4.04.68-5.5,2.04-1.46,1.36-2.32,3.53-2.58,6.52h15.95c-.07-2.4-.76-4.42-2.09-6.08-1.33-1.65-3.26-2.48-5.79-2.48Z"/>
  <path class="cls-1" d="m317.26,23.74c1.04,0,2.11.07,3.21.19,1.1.13,1.91.26,2.43.39l-1.65,17.51c-.65-.13-1.44-.26-2.38-.39-.94-.13-2.25-.19-3.94-.19-1.56,0-3.23.23-5.01.68-1.78.45-3.32,1.44-4.62,2.97-1.3,1.52-1.95,3.91-1.95,7.15v26.45h-18.58V24.71h13.81l2.92,8.56h.88c1.49-2.66,3.58-4.91,6.27-6.76,2.69-1.85,5.56-2.77,8.61-2.77Z"/>
  <path class="cls-1" d="m323.88,24.71h19.55l9.14,30.83c.19.65.37,1.52.53,2.63.16,1.1.28,2.17.34,3.21h.39c.13-1.3.31-2.41.54-3.35.23-.94.44-1.73.63-2.38l9.34-30.93h18.96l-21.3,57.19c-1.62,4.34-3.52,8.01-5.69,10.99-2.17,2.98-4.85,5.22-8.02,6.71-3.18,1.49-7.13,2.24-11.87,2.24-1.69,0-3.15-.08-4.38-.24-1.23-.16-2.3-.34-3.21-.53v-14.59c.71.13,1.57.26,2.58.39,1,.13,2.06.19,3.16.19,3.05,0,5.3-.89,6.76-2.67,1.46-1.78,2.64-3.84,3.55-6.18l.19-.49-21.2-53Z"/>
</svg>