<?xml version="1.0" encoding="UTF-8"?>
<svg id="Layer_1" data-name="Layer 1" xmlns="http://www.w3.org/2000/svg" viewBox="0 0 385.94 106.03">
  <defs>
    <style>
      .cls-1 {
        fill: none;
        stroke: #fff;
        stroke-miterlimit: 10;
        stroke-width: 4px;
      }
    </style>
  </defs>
  <path class="cls-1" d="m116.82,9.05c10.05,0,17.21,1.49,21.49,4.47,4.28,2.98,6.42,7.26,6.42,12.84,0,3.05-.55,5.62-1.65,7.73-1.1,2.11-2.48,3.78-4.13,5.01-1.65,1.23-3.36,2.08-5.11,2.53v.49c1.88.46,3.76,1.23,5.64,2.33,1.88,1.1,3.45,2.74,4.72,4.91,1.26,2.17,1.9,5.11,1.9,8.8,0,6.29-2.37,11.25-7.1,14.88-4.73,3.63-11.18,5.45-19.35,5.45h-27.04V9.05h24.22Zm.19,26.65c3.11,0,5.3-.65,6.56-1.94,1.26-1.3,1.9-2.85,1.9-4.67,0-3.89-2.95-5.83-8.85-5.83h-5.25v12.45h5.64Zm-5.64,13.71v14.59h6.61c3.24,0,5.51-.7,6.81-2.09,1.3-1.39,1.95-3.16,1.95-5.3,0-1.88-.65-3.55-1.95-5.01-1.3-1.46-3.7-2.19-7.2-2.19h-6.22Z"/>
  <path class="cls-1" d="m188.4,78.49l-14.2-49.99h-.39c.13,1.3.26,3.05.39,5.25s.26,4.59.39,7.15c.13,2.56.19,5.04.19,7.44v30.15h-16.63V9.05h25l14.49,49.31h.39l14.2-49.31h25v69.44h-17.21v-30.44c0-2.2.03-4.55.1-7.05.06-2.5.16-4.86.29-7.1.13-2.24.23-4,.29-5.3h-.39l-14,49.89h-17.89Z"/>
  <path class="cls-1" d="m297.62,57.39c0,3.76-.96,7.33-2.87,10.7-1.91,3.37-4.86,6.11-8.85,8.22-3.99,2.11-9.16,3.16-15.51,3.16-3.18,0-5.95-.15-8.32-.44-2.37-.29-4.59-.76-6.66-1.41-2.08-.65-4.21-1.49-6.42-2.53v-16.73c3.76,1.88,7.55,3.32,11.38,4.33,3.83,1.01,7.29,1.51,10.41,1.51,2.79,0,4.83-.49,6.13-1.46s1.95-2.2,1.95-3.7c0-1.81-.96-3.29-2.87-4.43-1.91-1.13-5.14-2.71-9.68-4.72-3.44-1.62-6.42-3.32-8.95-5.11-2.53-1.78-4.47-3.97-5.83-6.56-1.36-2.59-2.04-5.87-2.04-9.82,0-4.47,1.1-8.22,3.31-11.23,2.2-3.01,5.27-5.28,9.19-6.81,3.92-1.52,8.48-2.29,13.67-2.29,4.54,0,8.62.5,12.25,1.51,3.63,1.01,6.87,2.16,9.73,3.45l-5.74,14.49c-2.98-1.36-5.92-2.45-8.8-3.26-2.89-.81-5.56-1.22-8.02-1.22s-4.17.42-5.3,1.26c-1.14.84-1.7,1.91-1.7,3.21,0,1.1.42,2.08,1.26,2.92.84.84,2.25,1.77,4.23,2.77,1.98,1.01,4.68,2.29,8.12,3.84,3.37,1.49,6.24,3.13,8.61,4.91,2.37,1.78,4.18,3.89,5.45,6.32s1.9,5.46,1.9,9.09Z"/>
</svg>