<?xml version="1.0" encoding="UTF-8"?>
<svg id="Layer_1" data-name="Layer 1" xmlns="http://www.w3.org/2000/svg" viewBox="0 0 385.94 106.03">
  <defs>
    <style>
      .cls-1 {
        fill: none;
        stroke: #fff;
        stroke-miterlimit: 10;
        stroke-width: 4px;
      }
    </style>
  </defs>
  <path class="cls-1" d="m109.48,42.31c0,8.04-1.51,14.75-4.52,20.13-3.01,5.38-7.25,9.4-12.69,12.06-5.45,2.66-11.87,3.99-19.26,3.99h-22.47V9.05h24.02c11.22,0,19.84,2.85,25.87,8.56,6.03,5.71,9.04,13.94,9.04,24.7Zm-19.45.68c0-12.51-5.09-18.77-15.27-18.77h-5.45v38.9h4.18c5.7,0,9.89-1.65,12.55-4.96,2.66-3.31,3.99-8.36,3.99-15.17Z"/>
  <path class="cls-1" d="m145.07,23.74c7.84,0,14.04,2.04,18.58,6.13,4.54,4.08,6.81,10.25,6.81,18.48v8.27h-33.16c.13,2.79,1.18,5.09,3.16,6.9,1.98,1.82,4.85,2.72,8.61,2.72,3.37,0,6.45-.32,9.24-.97,2.79-.65,5.67-1.69,8.66-3.11v13.32c-2.59,1.36-5.43,2.37-8.51,3.01-3.08.65-6.95.97-11.62.97-5.45,0-10.29-.96-14.54-2.87-4.25-1.91-7.6-4.91-10.07-9-2.46-4.08-3.7-9.3-3.7-15.66s1.12-11.8,3.36-15.95c2.24-4.15,5.35-7.23,9.34-9.24,3.99-2.01,8.61-3.02,13.86-3.02Zm.68,12.64c-2.21,0-4.04.68-5.5,2.04-1.46,1.36-2.32,3.54-2.58,6.52h15.95c-.07-2.4-.76-4.42-2.09-6.08-1.33-1.65-3.26-2.48-5.79-2.48Z"/>
  <path class="cls-1" d="m207.32,64.78c1.69,0,3.22-.18,4.62-.54,1.39-.36,2.84-.79,4.33-1.31v13.52c-2.01.84-4.15,1.56-6.42,2.14-2.27.58-5.15.88-8.66.88s-6.56-.55-9.19-1.65-4.69-3-6.18-5.69c-1.49-2.69-2.24-6.47-2.24-11.33v-22.17h-6.52v-7.59l8.27-5.84,4.77-11.28h12.16v10.79h13.23v13.91h-13.23v20.91c0,3.5,1.69,5.25,5.06,5.25Z"/>
  <path class="cls-1" d="m251.96,23.74c6.81,0,12.12,1.69,15.95,5.06,3.82,3.37,5.74,8.17,5.74,14.39v35.3h-12.84l-3.6-7.1h-.39c-1.49,1.88-3.03,3.42-4.62,4.62-1.59,1.2-3.42,2.08-5.5,2.63-2.08.55-4.6.83-7.59.83-4.67,0-8.56-1.42-11.67-4.28-3.11-2.85-4.67-7.23-4.67-13.13s1.99-10.05,5.98-12.84c3.99-2.79,9.77-4.34,17.36-4.67l8.95-.29v-.78c0-2.4-.58-4.1-1.75-5.11-1.17-1-2.76-1.51-4.77-1.51-2.14,0-4.51.37-7.1,1.12-2.59.75-5.22,1.7-7.88,2.87l-5.35-12.25c3.11-1.62,6.63-2.84,10.55-3.65,3.92-.81,8.32-1.22,13.18-1.22Zm-1.07,30.93c-3.37.13-5.75.73-7.15,1.8-1.4,1.07-2.09,2.58-2.09,4.52,0,1.82.49,3.16,1.46,4.04s2.27,1.31,3.89,1.31c2.27,0,4.2-.71,5.79-2.14,1.59-1.43,2.38-3.27,2.38-5.54v-4.18l-4.28.19Z"/>
  <path class="cls-1" d="m295.72,3.02c2.66,0,4.97.55,6.95,1.65,1.98,1.1,2.97,3.31,2.97,6.61s-.99,5.33-2.97,6.47c-1.98,1.13-4.3,1.7-6.95,1.7s-5.04-.57-6.95-1.7c-1.91-1.13-2.87-3.29-2.87-6.47s.96-5.51,2.87-6.61c1.91-1.1,4.23-1.65,6.95-1.65Zm9.24,21.69v53.78h-18.58V24.71h18.58Z"/>
  <path class="cls-1" d="m336.47,78.49h-18.58V4.58h18.58v73.91Z"/>
</svg>