<?xml version="1.0" encoding="UTF-8"?>
<svg id="Layer_1" data-name="Layer 1" xmlns="http://www.w3.org/2000/svg" viewBox="0 0 385.94 106.03">
  <defs>
    <style>
      .cls-1 {
        fill: none;
        stroke: #fff;
        stroke-miterlimit: 10;
        stroke-width: 4px;
      }
    </style>
  </defs>
  <path class="cls-1" d="m115.31,78.49l-14.2-49.99h-.39c.13,1.3.26,3.05.39,5.25.13,2.2.26,4.59.39,7.15.13,2.56.19,5.04.19,7.44v30.15h-16.63V9.05h24.99l14.49,49.31h.39l14.2-49.31h25v69.44h-17.21v-30.44c0-2.2.03-4.55.1-7.05.06-2.5.16-4.86.29-7.1.13-2.24.23-4,.29-5.3h-.39l-14,49.89h-17.9Z"/>
  <path class="cls-1" d="m210.04,23.44c-4.41,0-7.88,1.82-10.41,5.45-2.53,3.63-3.79,8.69-3.79,15.17s1.26,11.52,3.79,14.93c2.53,3.4,6.35,5.11,11.48,5.11,3.05,0,6.01-.42,8.9-1.26,2.88-.84,5.79-1.88,8.7-3.11v15.85c-3.05,1.36-6.18,2.35-9.39,2.97-3.21.62-6.63.92-10.26.92-7.52,0-13.68-1.49-18.48-4.47-4.8-2.98-8.33-7.15-10.6-12.5s-3.4-11.52-3.4-18.53,1.3-13.19,3.89-18.58c2.59-5.38,6.4-9.61,11.43-12.69,5.02-3.08,11.14-4.62,18.33-4.62,3.37,0,6.91.39,10.6,1.17,3.7.78,7.33,2.01,10.89,3.7l-5.74,14.78c-2.53-1.23-5.09-2.25-7.68-3.06-2.59-.81-5.35-1.22-8.27-1.22Z"/>
  <path class="cls-1" d="m301.26,50.87c0,8.75-2.48,15.71-7.44,20.86-4.96,5.15-12.47,7.73-22.51,7.73s-16.91-2.45-21.93-7.34c-5.02-4.9-7.54-11.85-7.54-20.86V9.05h18.87v40.75c0,4.93.92,8.49,2.77,10.7,1.85,2.21,4.55,3.31,8.12,3.31,3.82,0,6.6-1.12,8.32-3.36,1.72-2.24,2.58-5.82,2.58-10.75V9.05h18.77v41.82Z"/>
</svg>