<?xml version="1.0" encoding="UTF-8"?>
<svg id="Layer_1" data-name="Layer 1" xmlns="http://www.w3.org/2000/svg" viewBox="0 0 385.94 106.03">
  <defs>
    <style>
      .cls-1 {
        fill: none;
        stroke: #fff;
        stroke-miterlimit: 10;
        stroke-width: 4px;
      }
    </style>
  </defs>
  <path class="cls-1" d="m76.56,78.49l-14.2-49.99h-.39c.13,1.3.26,3.05.39,5.25.13,2.21.26,4.59.39,7.15.13,2.56.19,5.04.19,7.44v30.15h-16.63V9.05h25l14.49,49.31h.39l14.2-49.31h25v69.44h-17.21v-30.44c0-2.2.03-4.55.1-7.05.06-2.5.16-4.86.29-7.1.13-2.24.23-4,.29-5.3h-.39l-14,49.89h-17.89Z"/>
  <path class="cls-1" d="m190.64,51.45c0,9.01-2.4,15.93-7.2,20.76-4.8,4.83-11.38,7.25-19.74,7.25-5.19,0-9.79-1.08-13.81-3.26-4.02-2.17-7.18-5.35-9.48-9.53-2.3-4.18-3.45-9.25-3.45-15.22,0-8.88,2.4-15.72,7.2-20.52,4.8-4.8,11.41-7.2,19.84-7.2,5.19,0,9.77,1.07,13.76,3.21s7.13,5.27,9.43,9.38c2.3,4.12,3.45,9.16,3.45,15.12Zm-34.82,0c0,4.6.62,8.12,1.85,10.55,1.23,2.43,3.31,3.65,6.22,3.65s4.88-1.21,6.08-3.65c1.2-2.43,1.8-5.95,1.8-10.55s-.6-8.07-1.8-10.41c-1.2-2.33-3.26-3.5-6.18-3.5s-4.81,1.17-6.08,3.5c-1.26,2.33-1.9,5.8-1.9,10.41Z"/>
  <path class="cls-1" d="m227.59,64.78c1.69,0,3.22-.18,4.62-.54,1.39-.36,2.84-.79,4.33-1.31v13.52c-2.01.84-4.15,1.56-6.42,2.14-2.27.58-5.15.88-8.66.88s-6.56-.55-9.19-1.65-4.69-3-6.18-5.69c-1.49-2.69-2.24-6.47-2.24-11.33v-22.17h-6.52v-7.59l8.27-5.84,4.77-11.28h12.16v10.79h13.23v13.91h-13.23v20.91c0,3.5,1.69,5.25,5.06,5.25Z"/>
  <path class="cls-1" d="m297.33,51.45c0,9.01-2.4,15.93-7.2,20.76-4.8,4.83-11.38,7.25-19.74,7.25-5.19,0-9.79-1.08-13.81-3.26-4.02-2.17-7.18-5.35-9.48-9.53-2.3-4.18-3.45-9.25-3.45-15.22,0-8.88,2.4-15.72,7.2-20.52s11.41-7.2,19.84-7.2c5.19,0,9.77,1.07,13.76,3.21,3.99,2.14,7.13,5.27,9.43,9.38,2.3,4.12,3.45,9.16,3.45,15.12Zm-34.82,0c0,4.6.62,8.12,1.85,10.55,1.23,2.43,3.31,3.65,6.22,3.65s4.88-1.21,6.08-3.65c1.2-2.43,1.8-5.95,1.8-10.55s-.6-8.07-1.8-10.41c-1.2-2.33-3.26-3.5-6.18-3.5s-4.81,1.17-6.08,3.5-1.9,5.8-1.9,10.41Z"/>
  <path class="cls-1" d="m340.41,23.74c1.04,0,2.11.07,3.21.19,1.1.13,1.91.26,2.43.39l-1.65,17.51c-.65-.13-1.44-.26-2.38-.39-.94-.13-2.25-.2-3.94-.2-1.56,0-3.23.23-5.01.68-1.78.45-3.32,1.44-4.62,2.97-1.3,1.52-1.95,3.91-1.95,7.15v26.45h-18.58V24.71h13.81l2.92,8.56h.88c1.49-2.66,3.58-4.91,6.27-6.76,2.69-1.85,5.56-2.77,8.61-2.77Z"/>
</svg>