<?xml version="1.0" encoding="UTF-8"?>
<svg id="Layer_1" data-name="Layer 1" xmlns="http://www.w3.org/2000/svg" viewBox="0 0 385.94 106.03">
  <defs>
    <style>
      .cls-1 {
        fill: none;
        stroke: #fff;
        stroke-miterlimit: 10;
        stroke-width: 4px;
      }
    </style>
  </defs>
  <path class="cls-1" d="m130.29,57.39c0,3.76-.96,7.33-2.87,10.7-1.91,3.37-4.86,6.11-8.85,8.22-3.99,2.11-9.16,3.16-15.51,3.16-3.18,0-5.95-.15-8.32-.44-2.37-.29-4.59-.76-6.66-1.41-2.08-.65-4.21-1.49-6.42-2.53v-16.73c3.76,1.88,7.55,3.32,11.38,4.33,3.83,1.01,7.29,1.51,10.41,1.51,2.79,0,4.83-.49,6.13-1.46s1.95-2.2,1.95-3.7c0-1.81-.96-3.29-2.87-4.42-1.91-1.13-5.14-2.71-9.68-4.72-3.44-1.62-6.42-3.32-8.95-5.11-2.53-1.78-4.47-3.97-5.83-6.56-1.36-2.59-2.04-5.87-2.04-9.82,0-4.47,1.1-8.22,3.31-11.23,2.2-3.01,5.27-5.28,9.19-6.81,3.92-1.52,8.48-2.29,13.67-2.29,4.54,0,8.62.5,12.25,1.51,3.63,1.01,6.87,2.16,9.73,3.45l-5.74,14.49c-2.98-1.36-5.92-2.45-8.8-3.26-2.89-.81-5.56-1.22-8.02-1.22s-4.17.42-5.3,1.26c-1.14.84-1.7,1.91-1.7,3.21,0,1.1.42,2.08,1.26,2.92.84.84,2.25,1.77,4.23,2.77,1.98,1.01,4.68,2.29,8.12,3.84,3.37,1.49,6.24,3.13,8.61,4.91,2.37,1.78,4.18,3.89,5.45,6.32,1.26,2.43,1.9,5.46,1.9,9.09Z"/>
  <path class="cls-1" d="m172.79,23.74c5.96,0,10.63,2.38,14,7.15,3.37,4.77,5.06,11.62,5.06,20.57,0,6.1-.86,11.23-2.58,15.42-1.72,4.18-4.05,7.33-7,9.43-2.95,2.11-6.31,3.16-10.07,3.16s-6.7-.68-8.8-2.04c-2.11-1.36-3.74-2.75-4.91-4.18h-.58c.13,1.23.26,2.56.39,3.99.13,1.42.19,3.08.19,4.96v19.65h-18.58V24.71h15.08l2.62,6.81h.88c1.3-2.07,3.06-3.89,5.3-5.45,2.24-1.56,5.24-2.33,9-2.33Zm-7,14.59c-2.72,0-4.59.97-5.59,2.92-1.01,1.95-1.57,4.83-1.7,8.66v1.46c0,4.28.52,7.54,1.56,9.77,1.04,2.24,2.98,3.35,5.84,3.35,2.33,0,4.1-1.02,5.3-3.06,1.2-2.04,1.8-5.43,1.8-10.16s-.62-8.07-1.85-10.02c-1.23-1.94-3.01-2.92-5.35-2.92Z"/>
  <path class="cls-1" d="m226.67,23.74c7.84,0,14.04,2.04,18.58,6.13,4.54,4.08,6.81,10.25,6.81,18.48v8.27h-33.16c.13,2.79,1.18,5.09,3.16,6.9,1.98,1.82,4.85,2.72,8.61,2.72,3.37,0,6.45-.32,9.24-.97,2.79-.65,5.67-1.69,8.66-3.11v13.32c-2.59,1.36-5.43,2.37-8.51,3.01-3.08.65-6.95.97-11.62.97-5.45,0-10.29-.96-14.54-2.87-4.25-1.91-7.6-4.91-10.07-9-2.46-4.08-3.7-9.3-3.7-15.66s1.12-11.8,3.36-15.95c2.24-4.15,5.35-7.23,9.34-9.24,3.99-2.01,8.61-3.02,13.86-3.02Zm.68,12.64c-2.21,0-4.04.68-5.5,2.04-1.46,1.36-2.32,3.54-2.58,6.52h15.95c-.07-2.4-.76-4.42-2.09-6.08-1.33-1.65-3.26-2.48-5.79-2.48Z"/>
  <path class="cls-1" d="m287.07,79.46c-8.17,0-14.69-2.2-19.55-6.61-4.86-4.41-7.29-11.41-7.29-21.01,0-6.55,1.23-11.88,3.7-16,2.46-4.12,5.82-7.16,10.07-9.14,4.25-1.98,9.09-2.97,14.54-2.97,3.31,0,6.43.36,9.38,1.07,2.95.71,5.69,1.72,8.22,3.01l-5.45,13.71c-2.21-.97-4.26-1.75-6.18-2.33-1.91-.58-3.91-.88-5.98-.88-2.79,0-5.06,1.1-6.81,3.31-1.75,2.21-2.63,5.58-2.63,10.11s.89,7.99,2.67,9.97c1.78,1.98,4.07,2.97,6.86,2.97s5.33-.42,8.02-1.26c2.69-.84,5.24-2.01,7.63-3.5v14.78c-2.21,1.43-4.7,2.58-7.49,3.45-2.79.88-6.03,1.31-9.73,1.31Z"/>
</svg>