<?xml version="1.0" encoding="UTF-8"?>
<svg id="Layer_1" data-name="Layer 1" xmlns="http://www.w3.org/2000/svg" viewBox="0 0 385.94 106.03">
  <defs>
    <style>
      .cls-1 {
        fill: none;
        stroke: #fff;
        stroke-miterlimit: 10;
        stroke-width: 4px;
      }
    </style>
  </defs>
  <path class="cls-1" d="m176.68,50.87c0,8.75-2.48,15.71-7.44,20.86-4.96,5.15-12.46,7.73-22.51,7.73s-16.91-2.45-21.93-7.34c-5.03-4.89-7.54-11.85-7.54-20.86V9.05h18.87v40.75c0,4.93.92,8.5,2.77,10.7,1.85,2.21,4.55,3.31,8.12,3.31,3.83,0,6.6-1.12,8.32-3.36,1.72-2.24,2.58-5.82,2.58-10.75V9.05h18.77v41.82Z"/>
  <path class="cls-1" d="m185.92,70.61c0-3.37.99-5.74,2.97-7.1,1.98-1.36,4.36-2.04,7.15-2.04s4.94.68,6.86,2.04c1.91,1.36,2.87,3.73,2.87,7.1,0,3.18-.96,5.48-2.87,6.91-1.91,1.43-4.2,2.14-6.86,2.14-2.79,0-5.17-.71-7.15-2.14-1.98-1.42-2.97-3.73-2.97-6.91Z"/>
  <path class="cls-1" d="m240.19,9.05c18.87,0,28.3,6.84,28.3,20.52,0,4.21-1.05,7.86-3.16,10.94-2.11,3.08-4.98,5.66-8.61,7.73l20.23,30.25h-21.3l-14.69-25.29h-4.77v25.29h-18.77V9.05h22.76Zm-.29,14.2h-3.7v15.85h3.5c2.85,0,5.2-.63,7.05-1.9,1.85-1.26,2.77-3.52,2.77-6.76,0-2.27-.75-4.04-2.24-5.3-1.49-1.26-3.96-1.9-7.39-1.9Z"/>
</svg>